<mxfile host="app.diagrams.net" modified="2022-12-09T09:49:06.734Z" agent="5.0 (Macintosh; Intel Mac OS X 10_15_7) AppleWebKit/537.36 (KHTML, like Gecko) Chrome/107.0.0.0 Safari/537.36" etag="WRZXc6qqrPr6g0yqttSO" version="20.5.3" type="github">
  <diagram id="hqS82j75-_uDZCX89QL6" name="Page-1">
    <mxGraphModel dx="1497" dy="881" grid="1" gridSize="10" guides="1" tooltips="1" connect="1" arrows="1" fold="1" page="1" pageScale="1" pageWidth="827" pageHeight="1169" math="0" shadow="0">
      <root>
        <mxCell id="0" />
        <mxCell id="1" parent="0" />
        <mxCell id="1Zz1Nqhw6DDxJ3_sBbBU-10" value="" style="rounded=0;whiteSpace=wrap;html=1;" vertex="1" parent="1">
          <mxGeometry x="320" y="630" width="620" height="220" as="geometry" />
        </mxCell>
        <mxCell id="1Zz1Nqhw6DDxJ3_sBbBU-2" value="tke api-sever" style="rounded=1;whiteSpace=wrap;html=1;" vertex="1" parent="1">
          <mxGeometry x="680" y="660" width="200" height="60" as="geometry" />
        </mxCell>
        <mxCell id="1Zz1Nqhw6DDxJ3_sBbBU-3" value="cvm" style="rounded=1;whiteSpace=wrap;html=1;strokeColor=#FF0000;" vertex="1" parent="1">
          <mxGeometry x="350" y="740" width="130" height="60" as="geometry" />
        </mxCell>
        <mxCell id="1Zz1Nqhw6DDxJ3_sBbBU-4" value="cvm" style="rounded=1;whiteSpace=wrap;html=1;strokeColor=#FF0000;" vertex="1" parent="1">
          <mxGeometry x="490" y="740" width="130" height="60" as="geometry" />
        </mxCell>
        <mxCell id="1Zz1Nqhw6DDxJ3_sBbBU-5" value="cvm" style="rounded=1;whiteSpace=wrap;html=1;strokeColor=#FF0000;" vertex="1" parent="1">
          <mxGeometry x="630" y="740" width="130" height="60" as="geometry" />
        </mxCell>
        <mxCell id="1Zz1Nqhw6DDxJ3_sBbBU-6" value="cvm" style="rounded=1;whiteSpace=wrap;html=1;strokeColor=#FF0000;" vertex="1" parent="1">
          <mxGeometry x="770" y="740" width="130" height="60" as="geometry" />
        </mxCell>
        <mxCell id="1Zz1Nqhw6DDxJ3_sBbBU-7" value="q1&lt;br&gt;&lt;font color=&quot;#ff0000&quot;&gt;min1 100预留 且可配置&lt;br&gt;&lt;/font&gt;&lt;font color=&quot;#0000ff&quot;&gt;max 1000&lt;/font&gt;" style="rounded=1;whiteSpace=wrap;html=1;" vertex="1" parent="1">
          <mxGeometry x="349" y="470" width="130" height="130" as="geometry" />
        </mxCell>
        <mxCell id="1Zz1Nqhw6DDxJ3_sBbBU-8" value="q2&lt;br&gt;&lt;font color=&quot;#ff0000&quot;&gt;min2 1000 预留 且可配置&lt;br&gt;&lt;/font&gt;&lt;font color=&quot;#0000ff&quot;&gt;max 2000&lt;/font&gt;" style="rounded=1;whiteSpace=wrap;html=1;" vertex="1" parent="1">
          <mxGeometry x="560" y="470" width="130" height="130" as="geometry" />
        </mxCell>
        <mxCell id="1Zz1Nqhw6DDxJ3_sBbBU-9" value="q3&lt;br&gt;&lt;font color=&quot;#ff0000&quot;&gt;min3 10000 可配置 且可配置&lt;br&gt;&lt;/font&gt;&lt;font color=&quot;#0000ff&quot;&gt;max 20000&amp;nbsp;&lt;/font&gt;" style="rounded=1;whiteSpace=wrap;html=1;" vertex="1" parent="1">
          <mxGeometry x="770" y="470" width="130" height="130" as="geometry" />
        </mxCell>
        <mxCell id="1Zz1Nqhw6DDxJ3_sBbBU-11" value="volcano/unikorn-scheduler" style="rounded=1;whiteSpace=wrap;html=1;" vertex="1" parent="1">
          <mxGeometry x="350" y="660" width="130" height="60" as="geometry" />
        </mxCell>
        <mxCell id="1Zz1Nqhw6DDxJ3_sBbBU-12" value="tke default scheduler" style="rounded=1;whiteSpace=wrap;html=1;" vertex="1" parent="1">
          <mxGeometry x="490" y="660" width="130" height="60" as="geometry" />
        </mxCell>
        <mxCell id="1Zz1Nqhw6DDxJ3_sBbBU-13" value="超级节点/EKS" style="rounded=1;whiteSpace=wrap;html=1;strokeColor=#0000FF;" vertex="1" parent="1">
          <mxGeometry x="910" y="740" width="130" height="60" as="geometry" />
        </mxCell>
        <mxCell id="1Zz1Nqhw6DDxJ3_sBbBU-19" value="&lt;font style=&quot;font-size: 18px;&quot;&gt;&lt;font style=&quot;font-size: 18px;&quot; color=&quot;#000000&quot;&gt;资源池&lt;/font&gt; &lt;br&gt;&lt;font style=&quot;font-size: 18px;&quot; color=&quot;#ff0000&quot;&gt;min 最小值是购买包年包月cvm&lt;/font&gt;&amp;nbsp;&lt;br&gt;max-min剩余的是eks弹性资源&lt;/font&gt;" style="text;html=1;strokeColor=none;fillColor=none;align=center;verticalAlign=middle;whiteSpace=wrap;rounded=0;fontColor=#0000FF;" vertex="1" parent="1">
          <mxGeometry x="505" y="850" width="265" height="30" as="geometry" />
        </mxCell>
        <mxCell id="1Zz1Nqhw6DDxJ3_sBbBU-20" value="&lt;h1&gt;DLC资源池&lt;/h1&gt;&lt;p&gt;Lorem ipsum dolor sit amet, consectetur adipisicing elit, sed do eiusmod tempor incididunt ut labore et dolore magna aliqua.&lt;/p&gt;" style="text;html=1;strokeColor=none;fillColor=none;spacing=5;spacingTop=-20;whiteSpace=wrap;overflow=hidden;rounded=0;fontSize=18;fontColor=#000000;" vertex="1" parent="1">
          <mxGeometry x="300" y="250" width="190" height="120" as="geometry" />
        </mxCell>
      </root>
    </mxGraphModel>
  </diagram>
</mxfile>
